<svg xmlns="http://www.w3.org/2000/svg" version="1.1" xmlns:xlink="http://www.w3.org/1999/xlink" xmlns:svgjs="http://svgjs.dev/svgjs" width="1500" height="1500" viewBox="0 0 1500 1500"><rect width="1500" height="1500" fill="#000000"></rect><g transform="matrix(0.6666666666666666,0,0,0.6666666666666666,249.39393939393938,654.1833974233053)"><svg viewBox="0 0 396 76" data-background-color="#ffffff" preserveAspectRatio="xMidYMid meet" height="287" width="1500" xmlns="http://www.w3.org/2000/svg" xmlns:xlink="http://www.w3.org/1999/xlink"><g id="tight-bounds" transform="matrix(1,0,0,1,0.2400000000000091,0.05955642419235119)"><svg viewBox="0 0 395.52 75.88088715161528" height="75.88088715161528" width="395.52"><g><svg viewBox="0 0 501.65267501792846 96.24254152088736" height="75.88088715161528" width="395.52"><g transform="matrix(1,0,0,1,0,27.174343717794095)"><svg viewBox="0 0 395.52 41.89385408529917" height="41.89385408529917" width="395.52"><g id="textblocktransform"><svg viewBox="0 0 395.52 41.89385408529917" height="41.89385408529917" width="395.52" id="textblock"><g><svg viewBox="0 0 395.52 41.89385408529917" height="41.89385408529917" width="395.52"><g transform="matrix(1,0,0,1,0,0)"><svg width="395.52" viewBox="2.0999999999999996 -33.35 320.02 33.9" height="41.89385408529917" data-palette-color="url(#97201499-758d-44a7-8918-f4ffad302d1b)"><g class="wordmark-text-0" data-fill-palette-color="primary" id="text-0"></g></svg></g></svg></g></svg></g></svg></g><g transform="matrix(1,0,0,1,405.41013349704104,0)"><svg viewBox="0 0 96.24254152088736 96.24254152088736" height="96.24254152088736" width="96.24254152088736"><g><svg></svg></g><g id="icon-0"><svg viewBox="0 0 96.24254152088736 96.24254152088736" height="96.24254152088736" width="96.24254152088736"><g></g><g transform="matrix(1,0,0,1,12.47588501196688,16.396929478103313)"><svg viewBox="0 0 71.2907714969536 63.44868256468073" height="63.44868256468073" width="71.2907714969536"><g><svg xmlns="http://www.w3.org/2000/svg" xmlns:xlink="http://www.w3.org/1999/xlink" version="1.1" x="0" y="0" viewBox="12.469999999999999 42.08699999999998 479.53 426.78099999999995" style="enable-background:new 0 0 512 512;" xml:space="preserve" height="63.44868256468073" width="71.2907714969536" class="icon-cg-0" data-fill-palette-color="quaternary" id="cg-0"><g fill="#ffffff" data-fill-palette-color="quaternary"><g fill="#ffffff" data-fill-palette-color="quaternary"><path d="M435.389 168.493c25.092 1.446 46.797 17.7 55.718 40.564 0.582-3.663 0.893-7.375 0.893-11.124 0-38.376-31.156-70.062-69.452-70.632-0.165-0.003-0.331-0.016-0.494-0.038-0.144-0.021-0.43-0.021-0.707-0.021-28.418 0-53.964 16.959-65.081 43.205-3.183 7.601-4.999 15.594-5.418 23.799 12.896 1.988 22.805 13.213 22.805 26.72 0 14.873-12.068 26.974-26.901 26.974-14.898 0-27.02-12.101-27.02-26.974 0-13.578 10.059-24.846 23.11-26.747 0.429-9.262 2.455-18.287 6.051-26.877 11.786-27.823 38.128-46.251 67.926-47.957-7.055-12.084-18.979-20.962-32.731-24.116-3.791-0.863-7.532-1.283-11.43-1.283-27.298 0-49.667 21.548-51.05 48.556 8.171 3.228 13.816 11.246 13.816 20.214 0 2.077-0.327 4.279-0.944 6.367-2.907 9.187-11.252 15.31-20.788 15.31-11.982 0-21.73-9.725-21.73-21.677 0-11.988 9.748-21.742 21.73-21.742 0.004 0 0.008 0 0.012 0 2.151-30.701 27.762-55.027 58.954-55.027 3.043 0 6.086 0.252 9.094 0.717-13.127-20.391-35.158-32.465-59.402-32.465-11.541 0-22.838 2.819-32.914 8.167 11.811 14.109 18.28 31.791 18.28 50.313 0 2.209-1.79 4-3.999 4s-4-1.791-4-4c0-18.078-6.85-35.276-19.284-48.428-13.28-14.113-31.98-22.204-51.312-22.204-18.222 0-35.422 6.851-48.532 19.288 28.979 11.236 48.581 38.475 50.033 69.585 12.989 1.902 22.997 13.14 22.997 26.68 0 14.874-12.068 26.975-26.902 26.975-14.9 0-27.022-12.101-27.022-26.975 0-13.477 9.957-24.676 22.915-26.656-1.496-28.964-20.497-54.144-48.246-63.359-7.092-2.421-14.584-3.644-22.301-3.644-39.61 0-67.805 23.685-70.329 58.206 3.948-0.792 7.928-1.199 11.902-1.199 28.529 0 53.11 20.62 58.198 48.359 13.624 1.34 24.304 12.865 24.304 26.843 0 14.874-12.094 26.975-26.96 26.975-14.868 0-26.963-12.101-26.963-26.975 0-13.018 9.264-23.91 21.543-26.427-4.809-23.457-25.802-40.775-50.122-40.775-5.021 0-10.06 0.733-14.978 2.181-21.673 6.617-36.261 26.3-36.261 48.966 0 9.847 2.833 19.407 8.191 27.647 0.711 1.094 0.844 2.467 0.356 3.677-2.642 6.55-4.039 13.707-4.039 20.696 0 30.786 25.008 55.833 55.747 55.833 0.227 0 0.446 0.03 0.662 0.066 0.216-0.036 0.436-0.066 0.662-0.066h162.09v49.15c0 2.209 1.791 4 4 4h122.26c18.012 0 32.666 14.661 32.666 32.683 0 18.021-14.654 32.682-32.666 32.682H150.17c-0.69-11.21-5.705-22.129-14.4-31.126-16.093-16.651-43.264-25.822-76.506-25.822-2.209 0-4 1.791-4 4v26.31H16.47c-2.209 0-4 1.791-4 4s1.791 4 4 4h38.795v42.693H16.47c-2.209 0-4 1.791-4 4s1.791 4 4 4h38.795v26.31c0 2.209 1.791 4 4 4 58.389 0 87.323-27.484 90.651-54.364h242.409c22.423 0 40.666-18.25 40.666-40.682 0-22.433-18.243-40.683-40.666-40.683h-118.26v-45.15h157.679c14.828 0 28.808-5.819 39.365-16.387 10.562-10.621 16.381-24.632 16.381-39.446 0-2.712-0.18-5.164-0.549-7.495-3.595-26.359-25.452-46.446-51.595-48.151-1.93 10.018-10.732 17.608-21.274 17.608-11.983 0-21.733-9.753-21.733-21.74 0-11.954 9.75-21.679 21.733-21.679C424.697 150.697 433.554 158.387 435.389 168.493zM63.265 460.82v-103.22c29.211 0.685 52.813 8.909 66.754 23.335 8.36 8.651 12.588 18.828 12.226 29.436C141.465 434.103 116.396 459.602 63.265 460.82z" fill="#000000" data-fill-palette-color="quaternary"></path><path d="M400.339 172.376c0 7.576 6.161 13.74 13.733 13.74 7.539 0 13.672-6.164 13.672-13.74 0-7.542-6.133-13.679-13.672-13.679C406.5 158.697 400.339 164.834 400.339 172.376z" fill="#000000" data-fill-palette-color="quaternary"></path><path d="M149.177 215.164c10.455 0 18.96-8.512 18.96-18.975s-8.505-18.975-18.96-18.975c-10.457 0-18.963 8.512-18.963 18.975S138.72 215.164 149.177 215.164z" fill="#000000" data-fill-palette-color="quaternary"></path><path d="M327.73 220.967c0 10.462 8.532 18.974 19.02 18.974 10.422 0 18.901-8.512 18.901-18.974 0-10.495-8.479-19.033-18.901-19.033C336.263 201.934 327.73 210.472 327.73 220.967z" fill="#000000" data-fill-palette-color="quaternary"></path><path d="M299.96 162.756c0 7.541 6.159 13.677 13.73 13.677 6.031 0 11.312-3.879 13.139-9.651 0.381-1.289 0.594-2.706 0.594-4.025 0-6.396-4.543-12.035-10.803-13.412-0.043-0.009-0.086-0.02-0.129-0.03-0.791-0.202-1.708-0.3-2.801-0.3C306.119 149.014 299.96 155.179 299.96 162.756z" fill="#000000" data-fill-palette-color="quaternary"></path><path d="M226.715 176.614c10.422 0 18.902-8.512 18.902-18.975 0-10.458-8.479-18.967-18.902-18.967-10.489 0-19.022 8.509-19.022 18.967C207.693 168.103 216.227 176.614 226.715 176.614z" fill="#000000" data-fill-palette-color="quaternary"></path><path d="M87.097 386.898c-2.209 0-4 1.791-4 4v32.236c0 2.209 1.791 4 4 4s4-1.791 4-4v-32.236C91.097 388.689 89.306 386.898 87.097 386.898z" fill="#000000" data-fill-palette-color="quaternary"></path><path d="M110.119 393.517c-2.209 0-4 1.791-4 4v18.999c0 2.209 1.791 4 4 4s4-1.791 4-4v-18.999C114.119 395.308 112.328 393.517 110.119 393.517z" fill="#000000" data-fill-palette-color="quaternary"></path></g></g></svg></g></svg></g></svg></g></svg></g></svg></g><defs></defs><mask id="6feb90a9-1179-4cce-ad20-0eaf3e52b7a5"><g id="SvgjsG1494"><svg viewBox="0 0 395.52 75.88088715161528" height="75.88088715161528" width="395.52"><g><svg viewBox="0 0 501.65267501792846 96.24254152088736" height="75.88088715161528" width="395.52"><g transform="matrix(1,0,0,1,0,27.174343717794095)"><svg viewBox="0 0 395.52 41.89385408529917" height="41.89385408529917" width="395.52"><g id="SvgjsG1493"><svg viewBox="0 0 395.52 41.89385408529917" height="41.89385408529917" width="395.52" id="SvgjsSvg1492"><g><svg viewBox="0 0 395.52 41.89385408529917" height="41.89385408529917" width="395.52"><g transform="matrix(1,0,0,1,0,0)"><svg width="395.52" viewBox="2.0999999999999996 -33.35 320.02 33.9" height="41.89385408529917" data-palette-color="url(#97201499-758d-44a7-8918-f4ffad302d1b)"><g class="wordmark-text-0" data-fill-palette-color="primary" id="SvgjsG1491"><path d="M2.1-24L2.1-24Q2.1-33.25 13.2-33.25L13.2-33.25Q17.1-33.25 22.1-31.5L22.1-31.5 20.95-26.95Q15.85-28.55 12.93-28.58 10-28.6 8.7-27.6 7.4-26.6 7.4-24.1L7.4-24.1Q7.4-22.4 8.85-21.23 10.3-20.05 13.75-19.15L13.75-19.15Q19-17.75 20.95-15.55 22.9-13.35 22.9-9L22.9-9Q22.9 0.45 11.6 0.45L11.6 0.45Q7.85 0.45 2.15-1.15L2.15-1.15 3.2-5.9Q3.2-5.85 4.75-5.45L4.75-5.45Q9.6-4.2 12.28-4.2 14.95-4.2 16.28-5.55 17.6-6.9 17.6-8.95 17.6-11 16.48-12.1 15.35-13.2 12.35-14.05L12.35-14.05Q6.95-15.55 4.53-17.75 2.1-19.95 2.1-24ZM35.8-4.3L35.8-4.3Q37.2-4.3 38.9-4.95 40.6-5.6 41.6-6.4L41.6-6.4 41.6-9.9Q38.6-10.15 36.7-10.15L36.7-10.15Q32.55-10.15 32.55-7.05L32.55-7.05Q32.55-4.3 35.8-4.3ZM35 0.55L35 0.55Q27 0.55 27-7.05L27-7.05Q27-11.1 29.57-12.73 32.15-14.35 36.7-14.35L36.7-14.35Q38.85-14.35 41.6-14.1L41.6-14.1Q41.6-17.1 40.75-18.2 39.9-19.3 37.8-19.3 35.7-19.3 32.9-18.8 30.1-18.3 28.6-17.8L28.6-17.8 27.65-22.55Q32.9-24.15 37.9-24.15 42.9-24.15 44.82-21.95 46.75-19.75 46.75-14.5L46.75-14.5 46.75-4.35 47.3 0.05 42.15 0.55 41.65-1.75Q37.45 0.55 35 0.55ZM60.4-28.8L54.95-28.75 54.9-33.3 65.55-33.35 65.55-4.5 71.15-4.5 71.15 0 54.75 0 54.75-4.5 60.4-4.5 60.4-28.8ZM96.99 0L91.99 0 91.89-1.75Q87.89 0.5 85.39 0.5L85.39 0.5Q81.34 0.5 79.49-1.83 77.64-4.15 77.64-9.25L77.64-9.25 77.64-23.75 82.79-23.75 82.79-9.55Q82.79-4.4 86.14-4.4L86.14-4.4Q88.79-4.4 91.84-6.45L91.84-6.45 91.84-23.75 96.99-23.75 96.99 0ZM103.14-1.1L103.14-1.1 104.24-5.65Q108.99-4.15 111.79-4.15 114.59-4.15 115.59-4.7L115.59-4.7Q116.59-5.2 116.59-6.5 116.59-7.8 115.69-8.35 114.79-8.9 112.29-9.5L112.29-9.5Q107.34-10.7 105.39-12.18 103.44-13.65 103.44-17L103.44-17Q103.44-24.15 112.64-24.15L112.64-24.15Q116.59-24.15 121.79-22.85L121.79-22.85 120.84-18.1Q115.89-19.5 113.19-19.5 110.49-19.5 109.57-19.03 108.64-18.55 108.64-17.4 108.64-16.25 109.57-15.73 110.49-15.2 114.34-14.15 118.19-13.1 119.99-11.73 121.79-10.35 121.79-7.05L121.79-7.05Q121.79 0.5 112.49 0.5L112.49 0.5Q108.14 0.5 103.14-1.1ZM138.29 0.45Q131.94 0.45 129.01-3.5 126.09-7.45 126.09-16.3 126.09-25.15 129.11-29.2 132.14-33.25 138.59-33.25L138.59-33.25Q143.69-33.25 147.79-31.85L147.79-31.85 146.89-27.4Q143.39-28.6 138.59-28.6L138.59-28.6Q134.64-28.6 133.01-25.75 131.39-22.9 131.39-16.55 131.39-10.2 133.11-7.28 134.84-4.35 138.29-4.35L138.29-4.35Q140.74-4.35 143.44-5L143.44-5 143.44-12.75 138.79-12.75 138.79-17.35 148.44-17.35 148.44-1.25Q143.69 0.45 138.29 0.45L138.29 0.45ZM171.99 0L166.99 0 166.89-1.75Q162.89 0.5 160.39 0.5L160.39 0.5Q156.34 0.5 154.49-1.83 152.64-4.15 152.64-9.25L152.64-9.25 152.64-23.75 157.79-23.75 157.79-9.55Q157.79-4.4 161.14-4.4L161.14-4.4Q163.79-4.4 166.84-6.45L166.84-6.45 166.84-23.75 171.99-23.75 171.99 0ZM185.78-4.3L185.78-4.3Q187.18-4.3 188.88-4.95 190.58-5.6 191.58-6.4L191.58-6.4 191.58-9.9Q188.58-10.15 186.68-10.15L186.68-10.15Q182.53-10.15 182.53-7.05L182.53-7.05Q182.53-4.3 185.78-4.3ZM184.98 0.55L184.98 0.55Q176.98 0.55 176.98-7.05L176.98-7.05Q176.98-11.1 179.56-12.73 182.13-14.35 186.68-14.35L186.68-14.35Q188.83-14.35 191.58-14.1L191.58-14.1Q191.58-17.1 190.73-18.2 189.88-19.3 187.78-19.3 185.68-19.3 182.88-18.8 180.08-18.3 178.58-17.8L178.58-17.8 177.63-22.55Q182.88-24.15 187.88-24.15 192.88-24.15 194.81-21.95 196.73-19.75 196.73-14.5L196.73-14.5 196.73-4.35 197.28 0.05 192.13 0.55 191.63-1.75Q187.43 0.55 184.98 0.55ZM207.88-19.15L204.03-19.15 204.03-23.75 213.03-23.75 213.13-21.35Q214.73-22.25 217.31-23.08 219.88-23.9 222.08-24.15L222.08-24.15 222.08-19.15Q220.13-18.95 217.43-18.1 214.73-17.25 213.13-16.35L213.13-16.35 213.13-4.5 220.43-4.5 220.43 0 204.03 0 204.03-4.6 207.88-4.6 207.88-19.15ZM242.68-33.35L247.78-33.35 247.78-4.15 248.28 0 243.23 0.5 242.78-1.8Q239.53 0.55 236.43 0.55L236.43 0.55Q231.78 0.55 229.43-2.18 227.08-4.9 227.08-11.4 227.08-17.9 229.93-21.03 232.78-24.15 237.33-24.15L237.33-24.15Q239.98-24.15 242.68-23L242.68-23 242.68-33.35ZM236.78-4.25L236.78-4.25Q239.43-4.25 242.68-6.95L242.68-6.95 242.68-18.1Q240.08-19.35 237.58-19.35L237.58-19.35Q232.63-19.35 232.63-11.4L232.63-11.4Q232.63-4.25 236.78-4.25ZM273.68-4.6L273.68 0 253.43 0 253.43-4.6 261.68-4.6 261.63-26.45 253.88-22.95 252.08-27.15 262.33-31.75 266.33-31.75 266.33-4.6 273.68-4.6ZM285.77-4.3L285.77-4.3Q287.17-4.3 288.87-4.95 290.57-5.6 291.57-6.4L291.57-6.4 291.57-9.9Q288.57-10.15 286.67-10.15L286.67-10.15Q282.52-10.15 282.52-7.05L282.52-7.05Q282.52-4.3 285.77-4.3ZM284.97 0.55L284.97 0.55Q276.97 0.55 276.97-7.05L276.97-7.05Q276.97-11.1 279.55-12.73 282.12-14.35 286.67-14.35L286.67-14.35Q288.82-14.35 291.57-14.1L291.57-14.1Q291.57-17.1 290.72-18.2 289.87-19.3 287.77-19.3 285.67-19.3 282.87-18.8 280.07-18.3 278.57-17.8L278.57-17.8 277.62-22.55Q282.87-24.15 287.87-24.15 292.87-24.15 294.8-21.95 296.72-19.75 296.72-14.5L296.72-14.5 296.72-4.35 297.27 0.05 292.12 0.55 291.62-1.75Q287.42 0.55 284.97 0.55ZM302.77-23.75L307.77-23.75 307.87-22.3Q311.92-24.15 314.22-24.15L314.22-24.15Q318.27-24.15 320.2-21.78 322.12-19.4 322.12-14.35L322.12-14.35 322.12 0 316.97 0 316.97-14.2Q316.97-16.6 316.12-17.95 315.27-19.3 313.47-19.3 311.67-19.3 307.92-17.55L307.92-17.55 307.92 0 302.77 0 302.77-23.75Z" fill="white"></path></g></svg></g></svg></g></svg></g></svg></g><g transform="matrix(1,0,0,1,405.41013349704104,0)"><svg viewBox="0 0 96.24254152088736 96.24254152088736" height="96.24254152088736" width="96.24254152088736"><g><svg></svg></g><g id="SvgjsG1490"><svg viewBox="0 0 96.24254152088736 96.24254152088736" height="96.24254152088736" width="96.24254152088736"><g><rect width="87.50942201251054" height="87.50942201251054" x="4.366559754188408" y="4.366559754188408" fill="black"></rect><rect width="87.50942201251054" height="87.50942201251054" x="8.881784197001252e-16" y="8.881784197001252e-16" fill="black" opacity="0.5"></rect></g><g transform="matrix(1,0,0,1,12.47588501196688,16.396929478103313)"><svg viewBox="0 0 71.2907714969536 63.44868256468073" height="63.44868256468073" width="71.2907714969536"><g><svg xmlns="http://www.w3.org/2000/svg" xmlns:xlink="http://www.w3.org/1999/xlink" version="1.1" x="0" y="0" viewBox="12.469999999999999 42.08699999999998 479.53 426.78099999999995" style="enable-background:new 0 0 512 512;" xml:space="preserve" height="63.44868256468073" width="71.2907714969536" class="icon-cg-0" data-fill-palette-color="quaternary" id="SvgjsSvg1489"><g fill="black"><g fill="black"><path d="M435.389 168.493c25.092 1.446 46.797 17.7 55.718 40.564 0.582-3.663 0.893-7.375 0.893-11.124 0-38.376-31.156-70.062-69.452-70.632-0.165-0.003-0.331-0.016-0.494-0.038-0.144-0.021-0.43-0.021-0.707-0.021-28.418 0-53.964 16.959-65.081 43.205-3.183 7.601-4.999 15.594-5.418 23.799 12.896 1.988 22.805 13.213 22.805 26.72 0 14.873-12.068 26.974-26.901 26.974-14.898 0-27.02-12.101-27.02-26.974 0-13.578 10.059-24.846 23.11-26.747 0.429-9.262 2.455-18.287 6.051-26.877 11.786-27.823 38.128-46.251 67.926-47.957-7.055-12.084-18.979-20.962-32.731-24.116-3.791-0.863-7.532-1.283-11.43-1.283-27.298 0-49.667 21.548-51.05 48.556 8.171 3.228 13.816 11.246 13.816 20.214 0 2.077-0.327 4.279-0.944 6.367-2.907 9.187-11.252 15.31-20.788 15.31-11.982 0-21.73-9.725-21.73-21.677 0-11.988 9.748-21.742 21.73-21.742 0.004 0 0.008 0 0.012 0 2.151-30.701 27.762-55.027 58.954-55.027 3.043 0 6.086 0.252 9.094 0.717-13.127-20.391-35.158-32.465-59.402-32.465-11.541 0-22.838 2.819-32.914 8.167 11.811 14.109 18.28 31.791 18.28 50.313 0 2.209-1.79 4-3.999 4s-4-1.791-4-4c0-18.078-6.85-35.276-19.284-48.428-13.28-14.113-31.98-22.204-51.312-22.204-18.222 0-35.422 6.851-48.532 19.288 28.979 11.236 48.581 38.475 50.033 69.585 12.989 1.902 22.997 13.14 22.997 26.68 0 14.874-12.068 26.975-26.902 26.975-14.9 0-27.022-12.101-27.022-26.975 0-13.477 9.957-24.676 22.915-26.656-1.496-28.964-20.497-54.144-48.246-63.359-7.092-2.421-14.584-3.644-22.301-3.644-39.61 0-67.805 23.685-70.329 58.206 3.948-0.792 7.928-1.199 11.902-1.199 28.529 0 53.11 20.62 58.198 48.359 13.624 1.34 24.304 12.865 24.304 26.843 0 14.874-12.094 26.975-26.96 26.975-14.868 0-26.963-12.101-26.963-26.975 0-13.018 9.264-23.91 21.543-26.427-4.809-23.457-25.802-40.775-50.122-40.775-5.021 0-10.06 0.733-14.978 2.181-21.673 6.617-36.261 26.3-36.261 48.966 0 9.847 2.833 19.407 8.191 27.647 0.711 1.094 0.844 2.467 0.356 3.677-2.642 6.55-4.039 13.707-4.039 20.696 0 30.786 25.008 55.833 55.747 55.833 0.227 0 0.446 0.03 0.662 0.066 0.216-0.036 0.436-0.066 0.662-0.066h162.09v49.15c0 2.209 1.791 4 4 4h122.26c18.012 0 32.666 14.661 32.666 32.683 0 18.021-14.654 32.682-32.666 32.682H150.17c-0.69-11.21-5.705-22.129-14.4-31.126-16.093-16.651-43.264-25.822-76.506-25.822-2.209 0-4 1.791-4 4v26.31H16.47c-2.209 0-4 1.791-4 4s1.791 4 4 4h38.795v42.693H16.47c-2.209 0-4 1.791-4 4s1.791 4 4 4h38.795v26.31c0 2.209 1.791 4 4 4 58.389 0 87.323-27.484 90.651-54.364h242.409c22.423 0 40.666-18.25 40.666-40.682 0-22.433-18.243-40.683-40.666-40.683h-118.26v-45.15h157.679c14.828 0 28.808-5.819 39.365-16.387 10.562-10.621 16.381-24.632 16.381-39.446 0-2.712-0.18-5.164-0.549-7.495-3.595-26.359-25.452-46.446-51.595-48.151-1.93 10.018-10.732 17.608-21.274 17.608-11.983 0-21.733-9.753-21.733-21.74 0-11.954 9.75-21.679 21.733-21.679C424.697 150.697 433.554 158.387 435.389 168.493zM63.265 460.82v-103.22c29.211 0.685 52.813 8.909 66.754 23.335 8.36 8.651 12.588 18.828 12.226 29.436C141.465 434.103 116.396 459.602 63.265 460.82z" fill="black"></path><path d="M400.339 172.376c0 7.576 6.161 13.74 13.733 13.74 7.539 0 13.672-6.164 13.672-13.74 0-7.542-6.133-13.679-13.672-13.679C406.5 158.697 400.339 164.834 400.339 172.376z" fill="black"></path><path d="M149.177 215.164c10.455 0 18.96-8.512 18.96-18.975s-8.505-18.975-18.96-18.975c-10.457 0-18.963 8.512-18.963 18.975S138.72 215.164 149.177 215.164z" fill="black"></path><path d="M327.73 220.967c0 10.462 8.532 18.974 19.02 18.974 10.422 0 18.901-8.512 18.901-18.974 0-10.495-8.479-19.033-18.901-19.033C336.263 201.934 327.73 210.472 327.73 220.967z" fill="black"></path><path d="M299.96 162.756c0 7.541 6.159 13.677 13.73 13.677 6.031 0 11.312-3.879 13.139-9.651 0.381-1.289 0.594-2.706 0.594-4.025 0-6.396-4.543-12.035-10.803-13.412-0.043-0.009-0.086-0.02-0.129-0.03-0.791-0.202-1.708-0.3-2.801-0.3C306.119 149.014 299.96 155.179 299.96 162.756z" fill="black"></path><path d="M226.715 176.614c10.422 0 18.902-8.512 18.902-18.975 0-10.458-8.479-18.967-18.902-18.967-10.489 0-19.022 8.509-19.022 18.967C207.693 168.103 216.227 176.614 226.715 176.614z" fill="black"></path><path d="M87.097 386.898c-2.209 0-4 1.791-4 4v32.236c0 2.209 1.791 4 4 4s4-1.791 4-4v-32.236C91.097 388.689 89.306 386.898 87.097 386.898z" fill="black"></path><path d="M110.119 393.517c-2.209 0-4 1.791-4 4v18.999c0 2.209 1.791 4 4 4s4-1.791 4-4v-18.999C114.119 395.308 112.328 393.517 110.119 393.517z" fill="black"></path></g></g></svg></g></svg></g></svg></g></svg></g></svg></g><defs><mask></mask></defs></svg><rect width="395.52" height="75.88088715161528" fill="black" stroke="none" visibility="hidden"></rect></g></mask><linearGradient x1="0.054" x2="0.941" y1="0.5" y2="0.5" id="97201499-758d-44a7-8918-f4ffad302d1b"><stop stop-color="#0f3054" offset="0"></stop><stop stop-color="#3b8dcb" offset="0.498"></stop><stop stop-color="#0f3054" offset="1"></stop></linearGradient><rect width="395.52" height="75.88088715161528" fill="#ffffff" mask="url(#6feb90a9-1179-4cce-ad20-0eaf3e52b7a5)" data-fill-palette-color="primary"></rect><mask id="1e613aab-0cf2-490d-b0f3-c2797a140b2d"><g id="SvgjsG1506"><svg viewBox="0 0 395.52 75.88088715161528" height="75.88088715161528" width="395.52"><g><svg viewBox="0 0 501.65267501792846 96.24254152088736" height="75.88088715161528" width="395.52"><g transform="matrix(1,0,0,1,0,27.174343717794095)"><svg viewBox="0 0 395.52 41.89385408529917" height="41.89385408529917" width="395.52"><g id="SvgjsG1505"><svg viewBox="0 0 395.52 41.89385408529917" height="41.89385408529917" width="395.52" id="SvgjsSvg1504"><g><svg viewBox="0 0 395.52 41.89385408529917" height="41.89385408529917" width="395.52"><g transform="matrix(1,0,0,1,0,0)"><svg width="395.52" viewBox="2.0999999999999996 -33.35 320.02 33.9" height="41.89385408529917" data-palette-color="url(#97201499-758d-44a7-8918-f4ffad302d1b)"><g class="wordmark-text-0" data-fill-palette-color="primary" id="SvgjsG1503"></g></svg></g></svg></g></svg></g></svg></g><g transform="matrix(1,0,0,1,405.41013349704104,0)"><svg viewBox="0 0 96.24254152088736 96.24254152088736" height="96.24254152088736" width="96.24254152088736"><g><svg></svg></g><g id="SvgjsG1502"><svg viewBox="0 0 96.24254152088736 96.24254152088736" height="96.24254152088736" width="96.24254152088736"><g><rect width="87.50942201251054" height="87.50942201251054" x="4.366559754188408" y="4.366559754188408" fill="white"></rect><rect width="87.50942201251054" height="87.50942201251054" x="8.881784197001252e-16" y="8.881784197001252e-16" fill="white" opacity="0.5"></rect></g><g transform="matrix(1,0,0,1,12.47588501196688,16.396929478103313)"><svg viewBox="0 0 71.2907714969536 63.44868256468073" height="63.44868256468073" width="71.2907714969536"><g><svg xmlns="http://www.w3.org/2000/svg" xmlns:xlink="http://www.w3.org/1999/xlink" version="1.1" x="0" y="0" viewBox="12.469999999999999 42.08699999999998 479.53 426.78099999999995" style="enable-background:new 0 0 512 512;" xml:space="preserve" height="63.44868256468073" width="71.2907714969536" class="icon-cg-0" data-fill-palette-color="quaternary" id="SvgjsSvg1501"><g fill="black"><g fill="black"><path d="M435.389 168.493c25.092 1.446 46.797 17.7 55.718 40.564 0.582-3.663 0.893-7.375 0.893-11.124 0-38.376-31.156-70.062-69.452-70.632-0.165-0.003-0.331-0.016-0.494-0.038-0.144-0.021-0.43-0.021-0.707-0.021-28.418 0-53.964 16.959-65.081 43.205-3.183 7.601-4.999 15.594-5.418 23.799 12.896 1.988 22.805 13.213 22.805 26.72 0 14.873-12.068 26.974-26.901 26.974-14.898 0-27.02-12.101-27.02-26.974 0-13.578 10.059-24.846 23.11-26.747 0.429-9.262 2.455-18.287 6.051-26.877 11.786-27.823 38.128-46.251 67.926-47.957-7.055-12.084-18.979-20.962-32.731-24.116-3.791-0.863-7.532-1.283-11.43-1.283-27.298 0-49.667 21.548-51.05 48.556 8.171 3.228 13.816 11.246 13.816 20.214 0 2.077-0.327 4.279-0.944 6.367-2.907 9.187-11.252 15.31-20.788 15.31-11.982 0-21.73-9.725-21.73-21.677 0-11.988 9.748-21.742 21.73-21.742 0.004 0 0.008 0 0.012 0 2.151-30.701 27.762-55.027 58.954-55.027 3.043 0 6.086 0.252 9.094 0.717-13.127-20.391-35.158-32.465-59.402-32.465-11.541 0-22.838 2.819-32.914 8.167 11.811 14.109 18.28 31.791 18.28 50.313 0 2.209-1.79 4-3.999 4s-4-1.791-4-4c0-18.078-6.85-35.276-19.284-48.428-13.28-14.113-31.98-22.204-51.312-22.204-18.222 0-35.422 6.851-48.532 19.288 28.979 11.236 48.581 38.475 50.033 69.585 12.989 1.902 22.997 13.14 22.997 26.68 0 14.874-12.068 26.975-26.902 26.975-14.9 0-27.022-12.101-27.022-26.975 0-13.477 9.957-24.676 22.915-26.656-1.496-28.964-20.497-54.144-48.246-63.359-7.092-2.421-14.584-3.644-22.301-3.644-39.61 0-67.805 23.685-70.329 58.206 3.948-0.792 7.928-1.199 11.902-1.199 28.529 0 53.11 20.62 58.198 48.359 13.624 1.34 24.304 12.865 24.304 26.843 0 14.874-12.094 26.975-26.96 26.975-14.868 0-26.963-12.101-26.963-26.975 0-13.018 9.264-23.91 21.543-26.427-4.809-23.457-25.802-40.775-50.122-40.775-5.021 0-10.06 0.733-14.978 2.181-21.673 6.617-36.261 26.3-36.261 48.966 0 9.847 2.833 19.407 8.191 27.647 0.711 1.094 0.844 2.467 0.356 3.677-2.642 6.55-4.039 13.707-4.039 20.696 0 30.786 25.008 55.833 55.747 55.833 0.227 0 0.446 0.03 0.662 0.066 0.216-0.036 0.436-0.066 0.662-0.066h162.09v49.15c0 2.209 1.791 4 4 4h122.26c18.012 0 32.666 14.661 32.666 32.683 0 18.021-14.654 32.682-32.666 32.682H150.17c-0.69-11.21-5.705-22.129-14.4-31.126-16.093-16.651-43.264-25.822-76.506-25.822-2.209 0-4 1.791-4 4v26.31H16.47c-2.209 0-4 1.791-4 4s1.791 4 4 4h38.795v42.693H16.47c-2.209 0-4 1.791-4 4s1.791 4 4 4h38.795v26.31c0 2.209 1.791 4 4 4 58.389 0 87.323-27.484 90.651-54.364h242.409c22.423 0 40.666-18.25 40.666-40.682 0-22.433-18.243-40.683-40.666-40.683h-118.26v-45.15h157.679c14.828 0 28.808-5.819 39.365-16.387 10.562-10.621 16.381-24.632 16.381-39.446 0-2.712-0.18-5.164-0.549-7.495-3.595-26.359-25.452-46.446-51.595-48.151-1.93 10.018-10.732 17.608-21.274 17.608-11.983 0-21.733-9.753-21.733-21.74 0-11.954 9.75-21.679 21.733-21.679C424.697 150.697 433.554 158.387 435.389 168.493zM63.265 460.82v-103.22c29.211 0.685 52.813 8.909 66.754 23.335 8.36 8.651 12.588 18.828 12.226 29.436C141.465 434.103 116.396 459.602 63.265 460.82z" fill="black"></path><path d="M400.339 172.376c0 7.576 6.161 13.74 13.733 13.74 7.539 0 13.672-6.164 13.672-13.74 0-7.542-6.133-13.679-13.672-13.679C406.5 158.697 400.339 164.834 400.339 172.376z" fill="black"></path><path d="M149.177 215.164c10.455 0 18.96-8.512 18.96-18.975s-8.505-18.975-18.96-18.975c-10.457 0-18.963 8.512-18.963 18.975S138.72 215.164 149.177 215.164z" fill="black"></path><path d="M327.73 220.967c0 10.462 8.532 18.974 19.02 18.974 10.422 0 18.901-8.512 18.901-18.974 0-10.495-8.479-19.033-18.901-19.033C336.263 201.934 327.73 210.472 327.73 220.967z" fill="black"></path><path d="M299.96 162.756c0 7.541 6.159 13.677 13.73 13.677 6.031 0 11.312-3.879 13.139-9.651 0.381-1.289 0.594-2.706 0.594-4.025 0-6.396-4.543-12.035-10.803-13.412-0.043-0.009-0.086-0.02-0.129-0.03-0.791-0.202-1.708-0.3-2.801-0.3C306.119 149.014 299.96 155.179 299.96 162.756z" fill="black"></path><path d="M226.715 176.614c10.422 0 18.902-8.512 18.902-18.975 0-10.458-8.479-18.967-18.902-18.967-10.489 0-19.022 8.509-19.022 18.967C207.693 168.103 216.227 176.614 226.715 176.614z" fill="black"></path><path d="M87.097 386.898c-2.209 0-4 1.791-4 4v32.236c0 2.209 1.791 4 4 4s4-1.791 4-4v-32.236C91.097 388.689 89.306 386.898 87.097 386.898z" fill="black"></path><path d="M110.119 393.517c-2.209 0-4 1.791-4 4v18.999c0 2.209 1.791 4 4 4s4-1.791 4-4v-18.999C114.119 395.308 112.328 393.517 110.119 393.517z" fill="black"></path></g></g></svg></g></svg></g></svg></g></svg></g></svg></g><defs><mask></mask></defs><mask><g id="SvgjsG1500"><svg viewBox="0 0 395.52 75.88088715161528" height="75.88088715161528" width="395.52"><g><svg viewBox="0 0 501.65267501792846 96.24254152088736" height="75.88088715161528" width="395.52"><g transform="matrix(1,0,0,1,0,27.174343717794095)"><svg viewBox="0 0 395.52 41.89385408529917" height="41.89385408529917" width="395.52"><g id="SvgjsG1499"><svg viewBox="0 0 395.52 41.89385408529917" height="41.89385408529917" width="395.52" id="SvgjsSvg1498"><g><svg viewBox="0 0 395.52 41.89385408529917" height="41.89385408529917" width="395.52"><g transform="matrix(1,0,0,1,0,0)"><svg width="395.52" viewBox="2.0999999999999996 -33.35 320.02 33.9" height="41.89385408529917" data-palette-color="url(#97201499-758d-44a7-8918-f4ffad302d1b)"><g class="wordmark-text-0" data-fill-palette-color="primary" id="SvgjsG1497"><path d="M2.1-24L2.1-24Q2.1-33.25 13.2-33.25L13.2-33.25Q17.1-33.25 22.1-31.5L22.1-31.5 20.95-26.95Q15.85-28.55 12.93-28.58 10-28.6 8.7-27.6 7.4-26.6 7.4-24.1L7.4-24.1Q7.4-22.4 8.85-21.23 10.3-20.05 13.75-19.15L13.75-19.15Q19-17.75 20.95-15.55 22.9-13.35 22.9-9L22.9-9Q22.9 0.45 11.6 0.45L11.6 0.45Q7.85 0.45 2.15-1.15L2.15-1.15 3.2-5.9Q3.2-5.85 4.75-5.45L4.75-5.45Q9.6-4.2 12.28-4.2 14.95-4.2 16.28-5.55 17.6-6.9 17.6-8.95 17.6-11 16.48-12.1 15.35-13.2 12.35-14.05L12.35-14.05Q6.95-15.55 4.53-17.75 2.1-19.95 2.1-24ZM35.8-4.3L35.8-4.3Q37.2-4.3 38.9-4.95 40.6-5.6 41.6-6.4L41.6-6.4 41.6-9.9Q38.6-10.15 36.7-10.15L36.7-10.15Q32.55-10.15 32.55-7.05L32.55-7.05Q32.55-4.3 35.8-4.3ZM35 0.55L35 0.55Q27 0.55 27-7.05L27-7.05Q27-11.1 29.57-12.73 32.15-14.35 36.7-14.35L36.7-14.35Q38.85-14.35 41.6-14.1L41.6-14.1Q41.6-17.1 40.75-18.2 39.9-19.3 37.8-19.3 35.7-19.3 32.9-18.8 30.1-18.3 28.6-17.8L28.6-17.8 27.65-22.55Q32.9-24.15 37.9-24.15 42.9-24.15 44.82-21.95 46.75-19.75 46.75-14.5L46.75-14.5 46.75-4.35 47.3 0.05 42.15 0.55 41.65-1.75Q37.45 0.55 35 0.55ZM60.4-28.8L54.95-28.75 54.9-33.3 65.55-33.35 65.55-4.5 71.15-4.5 71.15 0 54.75 0 54.75-4.5 60.4-4.5 60.4-28.8ZM96.99 0L91.99 0 91.89-1.75Q87.89 0.5 85.39 0.5L85.39 0.5Q81.34 0.5 79.49-1.83 77.64-4.15 77.64-9.25L77.64-9.25 77.64-23.75 82.79-23.75 82.79-9.55Q82.79-4.4 86.14-4.4L86.14-4.4Q88.79-4.4 91.84-6.45L91.84-6.45 91.84-23.75 96.99-23.75 96.99 0ZM103.14-1.1L103.14-1.1 104.24-5.65Q108.99-4.15 111.79-4.15 114.59-4.15 115.59-4.7L115.59-4.7Q116.59-5.2 116.59-6.5 116.59-7.8 115.69-8.35 114.79-8.9 112.29-9.5L112.29-9.5Q107.34-10.7 105.39-12.18 103.44-13.65 103.44-17L103.44-17Q103.44-24.15 112.64-24.15L112.64-24.15Q116.59-24.15 121.79-22.85L121.79-22.85 120.84-18.1Q115.89-19.5 113.19-19.5 110.49-19.5 109.57-19.03 108.64-18.55 108.64-17.4 108.64-16.25 109.57-15.73 110.49-15.2 114.34-14.15 118.19-13.1 119.99-11.73 121.79-10.35 121.79-7.05L121.79-7.05Q121.79 0.5 112.49 0.5L112.49 0.5Q108.14 0.5 103.14-1.1ZM138.29 0.45Q131.94 0.45 129.01-3.5 126.09-7.45 126.09-16.3 126.09-25.15 129.11-29.2 132.14-33.25 138.59-33.25L138.59-33.25Q143.69-33.25 147.79-31.85L147.79-31.85 146.89-27.4Q143.39-28.6 138.59-28.6L138.59-28.6Q134.64-28.6 133.01-25.75 131.39-22.9 131.39-16.55 131.39-10.2 133.11-7.28 134.84-4.35 138.29-4.35L138.29-4.35Q140.74-4.35 143.44-5L143.44-5 143.44-12.75 138.79-12.75 138.79-17.35 148.44-17.35 148.44-1.25Q143.69 0.45 138.29 0.45L138.29 0.45ZM171.99 0L166.99 0 166.89-1.75Q162.89 0.5 160.39 0.5L160.39 0.5Q156.34 0.5 154.49-1.83 152.64-4.15 152.64-9.25L152.64-9.25 152.64-23.75 157.79-23.75 157.79-9.55Q157.79-4.4 161.14-4.4L161.14-4.4Q163.79-4.4 166.84-6.45L166.84-6.45 166.84-23.75 171.99-23.75 171.99 0ZM185.78-4.3L185.78-4.3Q187.18-4.3 188.88-4.95 190.58-5.6 191.58-6.4L191.58-6.4 191.58-9.9Q188.58-10.15 186.68-10.15L186.68-10.15Q182.53-10.15 182.53-7.05L182.53-7.05Q182.53-4.3 185.78-4.3ZM184.98 0.55L184.98 0.55Q176.98 0.55 176.98-7.05L176.98-7.05Q176.98-11.1 179.56-12.73 182.13-14.35 186.68-14.35L186.68-14.35Q188.83-14.35 191.58-14.1L191.58-14.1Q191.58-17.1 190.73-18.2 189.88-19.3 187.78-19.3 185.68-19.3 182.88-18.8 180.08-18.3 178.58-17.8L178.58-17.8 177.63-22.55Q182.88-24.15 187.88-24.15 192.88-24.15 194.81-21.95 196.73-19.75 196.73-14.5L196.73-14.5 196.73-4.35 197.28 0.05 192.13 0.55 191.63-1.75Q187.43 0.55 184.98 0.55ZM207.88-19.15L204.03-19.15 204.03-23.75 213.03-23.75 213.13-21.35Q214.73-22.25 217.31-23.08 219.88-23.9 222.08-24.15L222.08-24.15 222.08-19.15Q220.13-18.95 217.43-18.1 214.73-17.25 213.13-16.35L213.13-16.35 213.13-4.5 220.43-4.5 220.43 0 204.03 0 204.03-4.6 207.88-4.6 207.88-19.15ZM242.68-33.35L247.78-33.35 247.78-4.15 248.28 0 243.23 0.5 242.78-1.8Q239.53 0.55 236.43 0.55L236.43 0.55Q231.78 0.55 229.43-2.18 227.08-4.9 227.08-11.4 227.08-17.9 229.93-21.03 232.78-24.15 237.33-24.15L237.33-24.15Q239.98-24.15 242.68-23L242.68-23 242.68-33.35ZM236.78-4.25L236.78-4.25Q239.43-4.25 242.68-6.95L242.68-6.95 242.68-18.1Q240.08-19.35 237.58-19.35L237.58-19.35Q232.63-19.35 232.63-11.4L232.63-11.4Q232.63-4.25 236.78-4.25ZM273.68-4.6L273.68 0 253.43 0 253.43-4.6 261.68-4.6 261.63-26.45 253.88-22.95 252.08-27.15 262.33-31.75 266.33-31.75 266.33-4.6 273.68-4.6ZM285.77-4.3L285.77-4.3Q287.17-4.3 288.87-4.95 290.57-5.6 291.57-6.4L291.57-6.4 291.57-9.9Q288.57-10.15 286.67-10.15L286.67-10.15Q282.52-10.15 282.52-7.05L282.52-7.05Q282.52-4.3 285.77-4.3ZM284.97 0.55L284.97 0.55Q276.97 0.55 276.97-7.05L276.97-7.05Q276.97-11.1 279.55-12.73 282.12-14.35 286.67-14.35L286.67-14.35Q288.82-14.35 291.57-14.1L291.57-14.1Q291.57-17.1 290.72-18.2 289.87-19.3 287.77-19.3 285.67-19.3 282.87-18.8 280.07-18.3 278.57-17.8L278.57-17.8 277.62-22.55Q282.87-24.15 287.87-24.15 292.87-24.15 294.8-21.95 296.72-19.75 296.72-14.5L296.72-14.5 296.72-4.35 297.27 0.05 292.12 0.55 291.62-1.75Q287.42 0.55 284.97 0.55ZM302.77-23.75L307.77-23.75 307.87-22.3Q311.92-24.15 314.22-24.15L314.22-24.15Q318.27-24.15 320.2-21.78 322.12-19.4 322.12-14.35L322.12-14.35 322.12 0 316.97 0 316.97-14.2Q316.97-16.6 316.12-17.95 315.27-19.3 313.47-19.3 311.67-19.3 307.92-17.55L307.92-17.55 307.92 0 302.77 0 302.77-23.75Z" fill="black"></path></g></svg></g></svg></g></svg></g></svg></g><g transform="matrix(1,0,0,1,405.41013349704104,0)"><svg viewBox="0 0 96.24254152088736 96.24254152088736" height="96.24254152088736" width="96.24254152088736"><g><svg></svg></g><g id="SvgjsG1496"><svg viewBox="0 0 96.24254152088736 96.24254152088736" height="96.24254152088736" width="96.24254152088736"><g><rect width="87.50942201251054" height="87.50942201251054" x="4.366559754188408" y="4.366559754188408" fill="black"></rect><rect width="87.50942201251054" height="87.50942201251054" x="8.881784197001252e-16" y="8.881784197001252e-16" fill="black" opacity="0.5"></rect></g><g transform="matrix(1,0,0,1,12.47588501196688,16.396929478103313)"><svg viewBox="0 0 71.2907714969536 63.44868256468073" height="63.44868256468073" width="71.2907714969536"><g><svg xmlns="http://www.w3.org/2000/svg" xmlns:xlink="http://www.w3.org/1999/xlink" version="1.1" x="0" y="0" viewBox="12.469999999999999 42.08699999999998 479.53 426.78099999999995" style="enable-background:new 0 0 512 512;" xml:space="preserve" height="63.44868256468073" width="71.2907714969536" class="icon-cg-0" data-fill-palette-color="quaternary" id="SvgjsSvg1495"><g fill="black"><g fill="black"><path d="M435.389 168.493c25.092 1.446 46.797 17.7 55.718 40.564 0.582-3.663 0.893-7.375 0.893-11.124 0-38.376-31.156-70.062-69.452-70.632-0.165-0.003-0.331-0.016-0.494-0.038-0.144-0.021-0.43-0.021-0.707-0.021-28.418 0-53.964 16.959-65.081 43.205-3.183 7.601-4.999 15.594-5.418 23.799 12.896 1.988 22.805 13.213 22.805 26.72 0 14.873-12.068 26.974-26.901 26.974-14.898 0-27.02-12.101-27.02-26.974 0-13.578 10.059-24.846 23.11-26.747 0.429-9.262 2.455-18.287 6.051-26.877 11.786-27.823 38.128-46.251 67.926-47.957-7.055-12.084-18.979-20.962-32.731-24.116-3.791-0.863-7.532-1.283-11.43-1.283-27.298 0-49.667 21.548-51.05 48.556 8.171 3.228 13.816 11.246 13.816 20.214 0 2.077-0.327 4.279-0.944 6.367-2.907 9.187-11.252 15.31-20.788 15.31-11.982 0-21.73-9.725-21.73-21.677 0-11.988 9.748-21.742 21.73-21.742 0.004 0 0.008 0 0.012 0 2.151-30.701 27.762-55.027 58.954-55.027 3.043 0 6.086 0.252 9.094 0.717-13.127-20.391-35.158-32.465-59.402-32.465-11.541 0-22.838 2.819-32.914 8.167 11.811 14.109 18.28 31.791 18.28 50.313 0 2.209-1.79 4-3.999 4s-4-1.791-4-4c0-18.078-6.85-35.276-19.284-48.428-13.28-14.113-31.98-22.204-51.312-22.204-18.222 0-35.422 6.851-48.532 19.288 28.979 11.236 48.581 38.475 50.033 69.585 12.989 1.902 22.997 13.14 22.997 26.68 0 14.874-12.068 26.975-26.902 26.975-14.9 0-27.022-12.101-27.022-26.975 0-13.477 9.957-24.676 22.915-26.656-1.496-28.964-20.497-54.144-48.246-63.359-7.092-2.421-14.584-3.644-22.301-3.644-39.61 0-67.805 23.685-70.329 58.206 3.948-0.792 7.928-1.199 11.902-1.199 28.529 0 53.11 20.62 58.198 48.359 13.624 1.34 24.304 12.865 24.304 26.843 0 14.874-12.094 26.975-26.96 26.975-14.868 0-26.963-12.101-26.963-26.975 0-13.018 9.264-23.91 21.543-26.427-4.809-23.457-25.802-40.775-50.122-40.775-5.021 0-10.06 0.733-14.978 2.181-21.673 6.617-36.261 26.3-36.261 48.966 0 9.847 2.833 19.407 8.191 27.647 0.711 1.094 0.844 2.467 0.356 3.677-2.642 6.55-4.039 13.707-4.039 20.696 0 30.786 25.008 55.833 55.747 55.833 0.227 0 0.446 0.03 0.662 0.066 0.216-0.036 0.436-0.066 0.662-0.066h162.09v49.15c0 2.209 1.791 4 4 4h122.26c18.012 0 32.666 14.661 32.666 32.683 0 18.021-14.654 32.682-32.666 32.682H150.17c-0.69-11.21-5.705-22.129-14.4-31.126-16.093-16.651-43.264-25.822-76.506-25.822-2.209 0-4 1.791-4 4v26.31H16.47c-2.209 0-4 1.791-4 4s1.791 4 4 4h38.795v42.693H16.47c-2.209 0-4 1.791-4 4s1.791 4 4 4h38.795v26.31c0 2.209 1.791 4 4 4 58.389 0 87.323-27.484 90.651-54.364h242.409c22.423 0 40.666-18.25 40.666-40.682 0-22.433-18.243-40.683-40.666-40.683h-118.26v-45.15h157.679c14.828 0 28.808-5.819 39.365-16.387 10.562-10.621 16.381-24.632 16.381-39.446 0-2.712-0.18-5.164-0.549-7.495-3.595-26.359-25.452-46.446-51.595-48.151-1.93 10.018-10.732 17.608-21.274 17.608-11.983 0-21.733-9.753-21.733-21.74 0-11.954 9.75-21.679 21.733-21.679C424.697 150.697 433.554 158.387 435.389 168.493zM63.265 460.82v-103.22c29.211 0.685 52.813 8.909 66.754 23.335 8.36 8.651 12.588 18.828 12.226 29.436C141.465 434.103 116.396 459.602 63.265 460.82z" fill="black"></path><path d="M400.339 172.376c0 7.576 6.161 13.74 13.733 13.74 7.539 0 13.672-6.164 13.672-13.74 0-7.542-6.133-13.679-13.672-13.679C406.5 158.697 400.339 164.834 400.339 172.376z" fill="black"></path><path d="M149.177 215.164c10.455 0 18.96-8.512 18.96-18.975s-8.505-18.975-18.96-18.975c-10.457 0-18.963 8.512-18.963 18.975S138.72 215.164 149.177 215.164z" fill="black"></path><path d="M327.73 220.967c0 10.462 8.532 18.974 19.02 18.974 10.422 0 18.901-8.512 18.901-18.974 0-10.495-8.479-19.033-18.901-19.033C336.263 201.934 327.73 210.472 327.73 220.967z" fill="black"></path><path d="M299.96 162.756c0 7.541 6.159 13.677 13.73 13.677 6.031 0 11.312-3.879 13.139-9.651 0.381-1.289 0.594-2.706 0.594-4.025 0-6.396-4.543-12.035-10.803-13.412-0.043-0.009-0.086-0.02-0.129-0.03-0.791-0.202-1.708-0.3-2.801-0.3C306.119 149.014 299.96 155.179 299.96 162.756z" fill="black"></path><path d="M226.715 176.614c10.422 0 18.902-8.512 18.902-18.975 0-10.458-8.479-18.967-18.902-18.967-10.489 0-19.022 8.509-19.022 18.967C207.693 168.103 216.227 176.614 226.715 176.614z" fill="black"></path><path d="M87.097 386.898c-2.209 0-4 1.791-4 4v32.236c0 2.209 1.791 4 4 4s4-1.791 4-4v-32.236C91.097 388.689 89.306 386.898 87.097 386.898z" fill="black"></path><path d="M110.119 393.517c-2.209 0-4 1.791-4 4v18.999c0 2.209 1.791 4 4 4s4-1.791 4-4v-18.999C114.119 395.308 112.328 393.517 110.119 393.517z" fill="black"></path></g></g></svg></g></svg></g></svg></g></svg></g></svg></g><defs><mask></mask></defs></svg><rect width="395.52" height="75.88088715161528" fill="black" stroke="none" visibility="hidden"></rect></g></mask></svg><rect width="395.52" height="75.88088715161528" fill="black" stroke="none" visibility="hidden"></rect></g></mask><linearGradient x1="0.054" x2="0.941" y1="0.5" y2="0.5" id="a7a4b980-3d39-4c43-b186-ef0e7f67f226"><stop stop-color="#0f3054" offset="0"></stop><stop stop-color="#3b8dcb" offset="0.498"></stop><stop stop-color="#0f3054" offset="1"></stop></linearGradient><rect width="395.52" height="75.88088715161528" fill="#ffffff" mask="url(#1e613aab-0cf2-490d-b0f3-c2797a140b2d)" data-fill-palette-color="accent"></rect></svg><rect width="395.52" height="75.88088715161528" fill="none" stroke="none" visibility="hidden"></rect></g></svg></g></svg>